<svg width="24" height="16" viewBox="0 0 24 16" fill="none" xmlns="http://www.w3.org/2000/svg">
<path d="M21.046 7.452L12.3794 1.452C12.2654 1.37333 12.1334 1.33333 12 1.33333C11.894 1.33333 11.788 1.35866 11.6907 1.40933C11.4707 1.52466 11.3334 1.752 11.3334 2L11.3334 14C11.3334 14.248 11.4707 14.4753 11.6907 14.5907C11.91 14.7067 12.1754 14.6893 12.3794 14.5487L21.046 8.54866C21.226 8.42333 21.3334 8.21866 21.3334 8C21.3334 7.78133 21.226 7.57666 21.046 7.452Z" fill="#090909"/>
<path d="M13.046 7.71813L4.37938 1.71813C4.26538 1.63947 4.13338 1.59947 4.00004 1.59947C3.89404 1.59947 3.78804 1.6248 3.69071 1.67547C3.47071 1.7908 3.33338 2.01813 3.33338 2.26613L3.33338 14.2661C3.33338 14.5141 3.47071 14.7415 3.69071 14.8568C3.91004 14.9728 4.17537 14.9555 4.37937 14.8148L13.046 8.8148C13.226 8.68947 13.3334 8.4848 13.3334 8.26613C13.3334 8.04747 13.226 7.8428 13.046 7.71813Z" fill="#090909"/>
</svg>
