<svg width="24" height="16" viewBox="0 0 24 16" fill="none" xmlns="http://www.w3.org/2000/svg">
<path d="M2.95396 8.548L11.6206 14.548C11.7346 14.6267 11.8666 14.6667 12 14.6667C12.106 14.6667 12.212 14.6413 12.3093 14.5907C12.5293 14.4753 12.6666 14.248 12.6666 14V2C12.6666 1.752 12.5293 1.52467 12.3093 1.40934C12.09 1.29334 11.8246 1.31067 11.6206 1.45134L2.95396 7.45134C2.77396 7.57667 2.66663 7.78134 2.66663 8C2.66663 8.21867 2.77396 8.42334 2.95396 8.548Z" fill="#090909"/>
<path d="M10.954 8.28187L19.6206 14.2819C19.7346 14.3605 19.8666 14.4005 20 14.4005C20.106 14.4005 20.212 14.3752 20.3093 14.3245C20.5293 14.2092 20.6666 13.9819 20.6666 13.7339V1.73387C20.6666 1.48587 20.5293 1.25853 20.3093 1.1432C20.09 1.0272 19.8246 1.04453 19.6206 1.1852L10.954 7.1852C10.774 7.31053 10.6666 7.5152 10.6666 7.73387C10.6666 7.95253 10.774 8.1572 10.954 8.28187Z" fill="#090909"/>
</svg>
